<?xml version="1.0" ?><!DOCTYPE svg  PUBLIC '-//W3C//DTD SVG 1.1//EN'  'http://www.w3.org/Graphics/SVG/1.1/DTD/svg11.dtd'><svg enable-background="new 0 0 500 500" height="500px" id="Layer_1" version="1.1" viewBox="0 0 500 500" width="500px" xml:space="preserve" xmlns="http://www.w3.org/2000/svg" xmlns:xlink="http://www.w3.org/1999/xlink"><path clip-rule="evenodd" d="M68.29,68.29v363.421c0,20.078,16.264,36.34,36.343,36.34h304.363  c12.536,0,22.716-10.175,22.716-22.711c0-12.541-10.18-22.716-22.716-22.716H131.889c-9.996,0-18.17-8.18-18.17-18.172  c0-9.987,8.175-18.168,18.17-18.168h263.478c20.078,0,36.345-16.267,36.345-36.346V68.29c0-20.077-16.267-36.34-36.345-36.34  H268.172v163.45c0,2.36-0.905,4.719-2.636,6.538c-3.538,3.54-9.362,3.54-12.902,0c-2.363-2.457-38.976-32.89-38.976-32.89  s-36.612,30.433-38.977,32.89c-3.54,3.54-9.359,3.54-12.901,0c-1.725-1.819-2.635-4.178-2.635-6.538V31.949h-54.512  C84.553,31.949,68.29,48.213,68.29,68.29z" fill="#010101" fill-rule="evenodd"/></svg>